<mxfile host="app.diagrams.net" modified="2023-06-26T17:30:51.845Z" agent="Mozilla/5.0 (Windows NT 10.0; Win64; x64) AppleWebKit/537.36 (KHTML, like Gecko) Chrome/114.0.0.0 Safari/537.36 Edg/114.0.1823.58" version="21.5.0" etag="Dy9hFz9YNQUvZ1SuFIbx" type="device">
  <diagram id="bMy_h3Av2Ug2Paj3Jpog" name="Page-1">
    <mxGraphModel dx="1918" dy="746" grid="1" gridSize="10" guides="1" tooltips="1" connect="1" arrows="1" fold="1" page="1" pageScale="1" pageWidth="850" pageHeight="1100" math="0" shadow="0">
      <root>
        <mxCell id="0" />
        <mxCell id="1" parent="0" />
        <mxCell id="2" value="Entidades" style="swimlane;startSize=20;horizontal=1;containerType=tree;" parent="1" vertex="1">
          <mxGeometry x="430" y="60" width="140" height="80" as="geometry" />
        </mxCell>
        <mxCell id="7rhXh0jIeeL4R88__Xz7-113" value="Events" style="whiteSpace=wrap;html=1;treeFolding=1;treeMoving=1;newEdgeStyle={&quot;edgeStyle&quot;:&quot;elbowEdgeStyle&quot;,&quot;startArrow&quot;:&quot;none&quot;,&quot;endArrow&quot;:&quot;none&quot;};" vertex="1" parent="2">
          <mxGeometry x="10" y="30" width="120" height="40" as="geometry" />
        </mxCell>
        <mxCell id="81" value="Vistas" style="swimlane;startSize=20;horizontal=1;containerType=tree;" parent="1" vertex="1">
          <mxGeometry x="40" y="200" width="920" height="140" as="geometry" />
        </mxCell>
        <mxCell id="85" value="TeamList" style="whiteSpace=wrap;html=1;treeFolding=1;treeMoving=1;newEdgeStyle={&quot;edgeStyle&quot;:&quot;elbowEdgeStyle&quot;,&quot;startArrow&quot;:&quot;none&quot;,&quot;endArrow&quot;:&quot;none&quot;};" parent="81" vertex="1">
          <mxGeometry x="10" y="30" width="120" height="40" as="geometry" />
        </mxCell>
        <mxCell id="86" value="GoalTeamEvents" style="whiteSpace=wrap;html=1;treeFolding=1;treeMoving=1;newEdgeStyle={&quot;edgeStyle&quot;:&quot;elbowEdgeStyle&quot;,&quot;startArrow&quot;:&quot;none&quot;,&quot;endArrow&quot;:&quot;none&quot;};" parent="81" vertex="1">
          <mxGeometry x="140" y="30" width="120" height="40" as="geometry" />
        </mxCell>
        <mxCell id="87" value="FoulTeamEvents" style="whiteSpace=wrap;html=1;treeFolding=1;treeMoving=1;newEdgeStyle={&quot;edgeStyle&quot;:&quot;elbowEdgeStyle&quot;,&quot;startArrow&quot;:&quot;none&quot;,&quot;endArrow&quot;:&quot;none&quot;};" parent="81" vertex="1">
          <mxGeometry x="270" y="30" width="120" height="40" as="geometry" />
        </mxCell>
        <mxCell id="88" value="AssistTeamEvents" style="whiteSpace=wrap;html=1;treeFolding=1;treeMoving=1;newEdgeStyle={&quot;edgeStyle&quot;:&quot;elbowEdgeStyle&quot;,&quot;startArrow&quot;:&quot;none&quot;,&quot;endArrow&quot;:&quot;none&quot;};" parent="81" vertex="1">
          <mxGeometry x="400" y="30" width="120" height="40" as="geometry" />
        </mxCell>
        <mxCell id="89" value="FreeKickTeamEvents" style="whiteSpace=wrap;html=1;treeFolding=1;treeMoving=1;newEdgeStyle={&quot;edgeStyle&quot;:&quot;elbowEdgeStyle&quot;,&quot;startArrow&quot;:&quot;none&quot;,&quot;endArrow&quot;:&quot;none&quot;};" parent="81" vertex="1">
          <mxGeometry x="530" y="30" width="120" height="40" as="geometry" />
        </mxCell>
        <mxCell id="90" value="topGoleadores" style="whiteSpace=wrap;html=1;treeFolding=1;treeMoving=1;newEdgeStyle={&quot;edgeStyle&quot;:&quot;elbowEdgeStyle&quot;,&quot;startArrow&quot;:&quot;none&quot;,&quot;endArrow&quot;:&quot;none&quot;};" parent="81" vertex="1">
          <mxGeometry x="140" y="90" width="120" height="40" as="geometry" />
        </mxCell>
        <mxCell id="91" value="topAsistentes" style="whiteSpace=wrap;html=1;treeFolding=1;treeMoving=1;newEdgeStyle={&quot;edgeStyle&quot;:&quot;elbowEdgeStyle&quot;,&quot;startArrow&quot;:&quot;none&quot;,&quot;endArrow&quot;:&quot;none&quot;};" parent="81" vertex="1">
          <mxGeometry x="270" y="90" width="120" height="40" as="geometry" />
        </mxCell>
        <mxCell id="92" value="golesPorMinuto" style="whiteSpace=wrap;html=1;treeFolding=1;treeMoving=1;newEdgeStyle={&quot;edgeStyle&quot;:&quot;elbowEdgeStyle&quot;,&quot;startArrow&quot;:&quot;none&quot;,&quot;endArrow&quot;:&quot;none&quot;};" parent="81" vertex="1">
          <mxGeometry x="400" y="90" width="120" height="40" as="geometry" />
        </mxCell>
        <mxCell id="93" value="faltasPorMinuto" style="whiteSpace=wrap;html=1;treeFolding=1;treeMoving=1;newEdgeStyle={&quot;edgeStyle&quot;:&quot;elbowEdgeStyle&quot;,&quot;startArrow&quot;:&quot;none&quot;,&quot;endArrow&quot;:&quot;none&quot;};" parent="81" vertex="1">
          <mxGeometry x="530" y="90" width="120" height="40" as="geometry" />
        </mxCell>
        <mxCell id="94" value="radarTeam" style="whiteSpace=wrap;html=1;treeFolding=1;treeMoving=1;newEdgeStyle={&quot;edgeStyle&quot;:&quot;elbowEdgeStyle&quot;,&quot;startArrow&quot;:&quot;none&quot;,&quot;endArrow&quot;:&quot;none&quot;};" parent="81" vertex="1">
          <mxGeometry x="660" y="90" width="120" height="40" as="geometry" />
        </mxCell>
        <mxCell id="95" value="barrasDivergentes" style="whiteSpace=wrap;html=1;treeFolding=1;treeMoving=1;newEdgeStyle={&quot;edgeStyle&quot;:&quot;elbowEdgeStyle&quot;,&quot;startArrow&quot;:&quot;none&quot;,&quot;endArrow&quot;:&quot;none&quot;};" parent="81" vertex="1">
          <mxGeometry x="790" y="90" width="120" height="40" as="geometry" />
        </mxCell>
        <mxCell id="97" value="sankey" style="whiteSpace=wrap;html=1;treeFolding=1;treeMoving=1;newEdgeStyle={&quot;edgeStyle&quot;:&quot;elbowEdgeStyle&quot;,&quot;startArrow&quot;:&quot;none&quot;,&quot;endArrow&quot;:&quot;none&quot;};" parent="81" vertex="1">
          <mxGeometry x="10" y="90" width="120" height="40" as="geometry" />
        </mxCell>
        <mxCell id="96" value="coeficienteAtaqueEquipo" style="whiteSpace=wrap;html=1;treeFolding=1;treeMoving=1;newEdgeStyle={&quot;edgeStyle&quot;:&quot;elbowEdgeStyle&quot;,&quot;startArrow&quot;:&quot;none&quot;,&quot;endArrow&quot;:&quot;none&quot;};" parent="81" vertex="1">
          <mxGeometry x="660" y="30" width="150" height="40" as="geometry" />
        </mxCell>
        <mxCell id="7rhXh0jIeeL4R88__Xz7-114" value="Serializers" style="swimlane;startSize=20;horizontal=1;containerType=tree;" vertex="1" parent="1">
          <mxGeometry x="240" y="410" width="540" height="80" as="geometry" />
        </mxCell>
        <mxCell id="7rhXh0jIeeL4R88__Xz7-115" value="TeamsSerializer" style="whiteSpace=wrap;html=1;treeFolding=1;treeMoving=1;newEdgeStyle={&quot;edgeStyle&quot;:&quot;elbowEdgeStyle&quot;,&quot;startArrow&quot;:&quot;none&quot;,&quot;endArrow&quot;:&quot;none&quot;};" vertex="1" parent="7rhXh0jIeeL4R88__Xz7-114">
          <mxGeometry x="400" y="30" width="120" height="40" as="geometry" />
        </mxCell>
        <mxCell id="7rhXh0jIeeL4R88__Xz7-116" value="PlayersSerializer" style="whiteSpace=wrap;html=1;treeFolding=1;treeMoving=1;newEdgeStyle={&quot;edgeStyle&quot;:&quot;elbowEdgeStyle&quot;,&quot;startArrow&quot;:&quot;none&quot;,&quot;endArrow&quot;:&quot;none&quot;};" vertex="1" parent="7rhXh0jIeeL4R88__Xz7-114">
          <mxGeometry x="140" y="30" width="120" height="40" as="geometry" />
        </mxCell>
        <mxCell id="7rhXh0jIeeL4R88__Xz7-117" value="MatchesSerializer" style="whiteSpace=wrap;html=1;treeFolding=1;treeMoving=1;newEdgeStyle={&quot;edgeStyle&quot;:&quot;elbowEdgeStyle&quot;,&quot;startArrow&quot;:&quot;none&quot;,&quot;endArrow&quot;:&quot;none&quot;};" vertex="1" parent="7rhXh0jIeeL4R88__Xz7-114">
          <mxGeometry x="270" y="30" width="120" height="40" as="geometry" />
        </mxCell>
        <mxCell id="7rhXh0jIeeL4R88__Xz7-118" value="EventsSerializer" style="whiteSpace=wrap;html=1;treeFolding=1;treeMoving=1;newEdgeStyle={&quot;edgeStyle&quot;:&quot;elbowEdgeStyle&quot;,&quot;startArrow&quot;:&quot;none&quot;,&quot;endArrow&quot;:&quot;none&quot;};" vertex="1" parent="7rhXh0jIeeL4R88__Xz7-114">
          <mxGeometry x="10" y="30" width="120" height="40" as="geometry" />
        </mxCell>
        <mxCell id="7rhXh0jIeeL4R88__Xz7-119" style="edgeStyle=elbowEdgeStyle;rounded=0;orthogonalLoop=1;jettySize=auto;html=1;startArrow=none;endArrow=none;exitX=0.25;exitY=1;exitDx=0;exitDy=0;" edge="1" parent="7rhXh0jIeeL4R88__Xz7-114" source="7rhXh0jIeeL4R88__Xz7-118" target="7rhXh0jIeeL4R88__Xz7-118">
          <mxGeometry relative="1" as="geometry" />
        </mxCell>
        <mxCell id="7rhXh0jIeeL4R88__Xz7-120" value="" style="endArrow=block;endSize=16;endFill=0;html=1;rounded=0;exitX=0.5;exitY=0;exitDx=0;exitDy=0;entryX=0;entryY=0.5;entryDx=0;entryDy=0;dashed=1;" edge="1" parent="1" target="7rhXh0jIeeL4R88__Xz7-118">
          <mxGeometry x="0.0678" y="-60" width="160" relative="1" as="geometry">
            <mxPoint x="630" y="230" as="sourcePoint" />
            <mxPoint x="230" y="390" as="targetPoint" />
            <Array as="points">
              <mxPoint x="630" y="160" />
              <mxPoint y="160" />
              <mxPoint y="460" />
            </Array>
            <mxPoint as="offset" />
          </mxGeometry>
        </mxCell>
        <mxCell id="7rhXh0jIeeL4R88__Xz7-121" value="" style="endArrow=block;dashed=1;endFill=0;endSize=12;html=1;rounded=0;exitX=0.5;exitY=0;exitDx=0;exitDy=0;entryX=0.5;entryY=0;entryDx=0;entryDy=0;" edge="1" parent="1" target="7rhXh0jIeeL4R88__Xz7-115">
          <mxGeometry width="160" relative="1" as="geometry">
            <mxPoint x="110" y="230" as="sourcePoint" />
            <mxPoint x="420" y="370" as="targetPoint" />
            <Array as="points">
              <mxPoint x="110" y="180" />
              <mxPoint x="30" y="180" />
              <mxPoint x="30" y="380" />
              <mxPoint x="700" y="380" />
            </Array>
          </mxGeometry>
        </mxCell>
        <mxCell id="7rhXh0jIeeL4R88__Xz7-122" value="" style="endArrow=none;dashed=1;html=1;strokeWidth=1;rounded=0;exitX=0.5;exitY=0;exitDx=0;exitDy=0;" edge="1" parent="1">
          <mxGeometry width="50" height="50" relative="1" as="geometry">
            <mxPoint x="240" y="230" as="sourcePoint" />
            <mxPoint x="240" y="160" as="targetPoint" />
          </mxGeometry>
        </mxCell>
        <mxCell id="7rhXh0jIeeL4R88__Xz7-123" value="" style="endArrow=none;dashed=1;html=1;strokeWidth=1;rounded=0;exitX=0.5;exitY=0;exitDx=0;exitDy=0;" edge="1" parent="1">
          <mxGeometry width="50" height="50" relative="1" as="geometry">
            <mxPoint x="370" y="230" as="sourcePoint" />
            <mxPoint x="370" y="160" as="targetPoint" />
          </mxGeometry>
        </mxCell>
        <mxCell id="7rhXh0jIeeL4R88__Xz7-124" value="" style="endArrow=none;dashed=1;html=1;strokeWidth=1;rounded=0;exitX=0.5;exitY=0;exitDx=0;exitDy=0;" edge="1" parent="1">
          <mxGeometry width="50" height="50" relative="1" as="geometry">
            <mxPoint x="499.5" y="230" as="sourcePoint" />
            <mxPoint x="499.5" y="160" as="targetPoint" />
          </mxGeometry>
        </mxCell>
        <mxCell id="7rhXh0jIeeL4R88__Xz7-125" value="" style="endArrow=block;dashed=1;endFill=0;endSize=12;html=1;rounded=0;exitX=0.5;exitY=1;exitDx=0;exitDy=0;" edge="1" parent="1">
          <mxGeometry width="160" relative="1" as="geometry">
            <mxPoint x="510" y="130" as="sourcePoint" />
            <mxPoint x="510" y="130" as="targetPoint" />
            <Array as="points">
              <mxPoint x="510" y="200" />
            </Array>
          </mxGeometry>
        </mxCell>
      </root>
    </mxGraphModel>
  </diagram>
</mxfile>
